HIERARCHY
ROOT Hips
{
	OFFSET 0.168689 16.685800 -0.019717
	CHANNELS 6 Xposition Yposition Zposition Zrotation Yrotation Xrotation 
	JOINT LHipJoint
	{
		OFFSET 0.000000 0.000000 0.000000
		CHANNELS 3 Zrotation Yrotation Xrotation
		JOINT LeftUpLeg
		{
			OFFSET 1.363060 -1.794630 0.839290
			CHANNELS 3 Zrotation Yrotation Xrotation
			JOINT LeftLeg
			{
				OFFSET 2.448110 -6.726130 0.000000
				CHANNELS 3 Zrotation Yrotation Xrotation
				JOINT LeftFoot
				{
					OFFSET 2.562200 -7.039590 0.000000
					CHANNELS 3 Zrotation Yrotation Xrotation
					JOINT LeftToeBase
					{
						OFFSET 0.157640 -0.433110 2.322550
						CHANNELS 3 Zrotation Yrotation Xrotation
						End Site
						{
							OFFSET 0.000000 0.000000 0.000000
						}
					}
				}
			}
		}
	}
	JOINT RHipJoint
	{
		OFFSET 0.000000 0.000000 0.000000
		CHANNELS 3 Zrotation Yrotation Xrotation
		JOINT RightUpLeg
		{
			OFFSET -1.305520 -1.794630 0.839290
			CHANNELS 3 Zrotation Yrotation Xrotation
			JOINT RightLeg
			{
				OFFSET -2.542530 -6.985550 0.000000
				CHANNELS 3 Zrotation Yrotation Xrotation
				JOINT RightFoot
				{
					OFFSET -2.568260 -7.056230 0.000000
					CHANNELS 3 Zrotation Yrotation Xrotation
					JOINT RightToeBase
					{
						OFFSET -0.164730 -0.452590 2.363150
						CHANNELS 3 Zrotation Yrotation Xrotation
						End Site
						{
							OFFSET 0.000000 0.000000 0.000000
						}
					}
				}
			}
		}
	}
	JOINT LowerBack
	{
		OFFSET 0.000000 0.000000 0.000000
		CHANNELS 3 Zrotation Yrotation Xrotation
		JOINT Spine
		{
			OFFSET 0.028270 2.035590 -0.193380
			CHANNELS 3 Zrotation Yrotation Xrotation
			JOINT Spine1
			{
				OFFSET 0.056720 2.048850 -0.042750
				CHANNELS 3 Zrotation Yrotation Xrotation
				JOINT Neck
				{
					OFFSET 0.000000 0.000000 0.000000
					CHANNELS 3 Zrotation Yrotation Xrotation
					JOINT Neck1
					{
						OFFSET -0.054170 1.746240 0.172020
						CHANNELS 3 Zrotation Yrotation Xrotation
						JOINT Head
						{
							OFFSET 0.104070 1.761360 -0.123970
							CHANNELS 3 Zrotation Yrotation Xrotation
							End Site
							{
								OFFSET 0.000000 0.000000 0.000000
							}
						}
					}
				}
				JOINT LeftShoulder
				{
					OFFSET 0.000000 0.000000 0.000000
					CHANNELS 3 Zrotation Yrotation Xrotation
					JOINT LeftArm
					{
						OFFSET 3.362410 1.200890 -0.311210
						CHANNELS 3 Zrotation Yrotation Xrotation
						JOINT LeftForeArm
						{
							OFFSET 4.983000 0.000000 0.000000
							CHANNELS 3 Zrotation Yrotation Xrotation
							JOINT LeftHand
							{
								OFFSET 3.483560 0.000000 0.000000
								CHANNELS 3 Zrotation Yrotation Xrotation
								JOINT LeftFingerBase
								{
									OFFSET 0.000000 0.000000 0.000000
									CHANNELS 3 Zrotation Yrotation Xrotation
									JOINT LeftHandIndex1
									{
										OFFSET 0.715260 0.000000 0.000000
										CHANNELS 3 Zrotation Yrotation Xrotation
										End Site
										{
											OFFSET 0.000000 0.000000 0.000000
										}
									}
								}
								JOINT LThumb
								{
									OFFSET 0.000000 0.000000 0.000000
									CHANNELS 3 Zrotation Yrotation Xrotation
									End Site
									{
										OFFSET 0.000000 0.000000 0.000000
									}
								}
							}
						}
					}
				}
				JOINT RightShoulder
				{
					OFFSET 0.000000 0.000000 0.000000
					CHANNELS 3 Zrotation Yrotation Xrotation
					JOINT RightArm
					{
						OFFSET -3.136600 1.374050 -0.404650
						CHANNELS 3 Zrotation Yrotation Xrotation
						JOINT RightForeArm
						{
							OFFSET -5.241900 0.000000 0.000000
							CHANNELS 3 Zrotation Yrotation Xrotation
							JOINT RightHand
							{
								OFFSET -3.444170 0.000000 0.000000
								CHANNELS 3 Zrotation Yrotation Xrotation
								JOINT RightFingerBase
								{
									OFFSET 0.000000 0.000000 0.000000
									CHANNELS 3 Zrotation Yrotation Xrotation
									JOINT RightHandIndex1
									{
										OFFSET -0.622530 0.000000 0.000000
										CHANNELS 3 Zrotation Yrotation Xrotation
										End Site
										{
											OFFSET 0.000000 0.000000 0.000000
										}
									}
								}
								JOINT RThumb
								{
									OFFSET 0.000000 0.000000 0.000000
									CHANNELS 3 Zrotation Yrotation Xrotation
									End Site
									{
										OFFSET 0.000000 0.000000 0.000000
									}
								}
							}
						}
					}
				}
			}
		}
	}
}
MOTION
Frames: 6
Frame Time: 0.041667
0.167662 16.685300 0.195892 -0.213163 -1.329380 8.641814 1.441937 17.955302 5.633079 -22.661143 2.700540 -46.588118 15.794860 5.039606 40.902805 1.621713 -5.737123 -5.155453 0.000000 0.000000 0.000000 -9.015977 -20.623605 0.454688 39.045346 20.270839 -28.148314 -19.338902 -7.685518 55.564360 2.020749 6.992093 -2.994792 0.006063 -0.002316 0.007191 -1.937297 0.120997 -2.123545 10.305125 0.276061 19.935341 -2.901576 0.551610 -5.168690 -1.002490 -0.026817 -9.920521 1.859502 -1.139526 26.906850 0.046852 -0.024510 0.006509 17.909089 25.592080 -5.192837 -93.790549 -4.053560 10.193772 -25.678714 -31.459638 16.507116 -3.272177 2.488677 -1.056647 -0.121028 -1.148140 -0.000001 0.000000 0.000000 0.000000 0.000000 -0.000000 -0.000000 -24.953481 -32.359466 -5.991001 107.524343 6.128653 2.530592 8.229326 2.058079 17.801767 7.993891 7.781193 1.602590 0.388195 2.494100 -0.000004 -0.000004 0.000003 0.000003 0.000000 -0.000000 0.000000 
0.168689 16.685800 0.143532 -0.305604 -1.552157 8.500712 1.441937 17.955302 5.633079 -22.567878 2.707489 -46.612321 15.940919 5.162328 40.824074 1.605243 -5.677847 -4.979943 -0.000000 -0.000000 -0.000000 -9.015977 -20.623605 0.454688 39.176706 20.289859 -28.140689 -19.174262 -7.567049 55.526546 1.903330 6.886566 -2.757106 0.006063 -0.002316 0.007191 -1.937297 0.120997 -2.123545 10.380601 0.411132 19.476822 -3.017221 0.629779 -5.216916 -1.077825 -0.000994 -9.985930 1.791041 -1.099002 26.842534 0.236095 0.012242 0.438118 17.749722 25.779116 -5.409245 -93.452798 -2.951007 9.984926 -25.979949 -31.689891 17.476600 -3.074396 2.741722 -1.114896 -0.121028 -1.148140 -0.000001 -0.000000 -0.000000 0.000000 0.000000 0.000000 0.000000 -25.305689 -32.212168 -6.383576 107.282629 5.099374 1.918978 8.224876 2.032302 17.893536 8.077243 7.788110 1.602596 0.388195 2.494100 -0.000004 -0.000004 0.000003 0.000003 -0.000000 -0.000000 0.000000 
0.167433 16.683100 0.081040 -0.412955 -1.788490 8.135520 1.441937 17.955302 5.633079 -22.389504 2.813758 -46.502450 16.105872 5.262992 40.805716 1.579694 -5.621649 -4.814992 -0.000000 0.000000 -0.000000 -9.015977 -20.623605 0.454688 39.325685 20.226963 -27.948825 -19.016802 -7.459463 55.514099 1.768916 6.779284 -2.517050 0.006063 -0.002316 0.007191 -1.937297 0.120997 -2.123545 10.486306 0.543686 19.150896 -3.143122 0.713756 -5.275340 -1.132193 0.020827 -10.134401 1.744154 -1.063340 26.695161 0.369030 0.032707 0.757996 17.539981 25.981727 -5.617251 -92.861584 -1.366529 9.607188 -26.418655 -32.043981 18.762204 -2.984455 2.789895 -1.123362 -0.121028 -1.148140 -0.000001 -0.000000 0.000000 -0.000000 0.000000 -0.000000 0.000000 -25.352839 -32.092998 -6.816099 106.795608 4.177121 1.230018 8.213453 1.967136 18.125453 7.938940 7.805310 1.603480 0.388195 2.494100 -0.000004 -0.000004 0.000003 0.000003 -0.000000 0.000000 0.000000 
0.163965 16.677900 0.011367 -0.527628 -2.016363 7.629912 1.441937 17.955302 5.633079 -22.159938 2.984530 -46.319318 16.263610 5.328555 40.833835 1.557906 -5.565304 -4.652920 0.000000 -0.000000 0.000000 -9.015977 -20.623605 0.454688 39.485378 20.113562 -27.644581 -18.876974 -7.371312 55.517199 1.627359 6.671474 -2.275194 0.006063 -0.002316 0.007191 -1.937297 0.120997 -2.123545 10.601706 0.658609 18.932698 -3.255887 0.789329 -5.324897 -1.184378 0.041396 -10.333303 1.700189 -1.027625 26.497194 0.488664 0.060375 0.919269 17.333780 26.139744 -5.746883 -92.100901 0.376256 9.149379 -26.965695 -32.512838 20.141361 -2.941114 2.749224 -1.110558 -0.121028 -1.148140 -0.000001 0.000000 0.000000 0.000000 -0.000000 0.000000 -0.000000 -25.240893 -31.978449 -7.212863 106.200789 3.391522 0.554235 8.200490 1.895670 18.380519 7.662989 7.848435 1.616234 0.388195 2.494100 -0.000004 -0.000004 0.000003 0.000003 0.000000 0.000000 0.000000 
0.158287 16.671000 -0.062661 -0.641808 -2.175808 7.067351 1.441937 17.955302 5.633079 -21.919739 3.179659 -46.133290 16.363183 5.326497 40.904099 1.570282 -5.504379 -4.486138 -0.000000 -0.000000 -0.000000 -9.015977 -20.623605 0.454688 39.644088 19.984475 -27.309641 -18.792373 -7.332174 55.530256 1.504112 6.566466 -2.034190 0.006063 -0.002316 0.007191 -1.937297 0.120997 -2.123545 10.718054 0.719199 18.987353 -3.324858 0.839216 -5.333134 -1.223848 0.056296 -10.543105 1.667914 -0.999304 26.288305 0.567454 0.093324 0.708339 17.199388 26.200223 -5.697542 -91.263901 1.909438 8.743113 -27.664871 -33.171082 21.362939 -2.874188 2.635135 -1.077359 -0.121028 -1.148140 -0.000001 0.000000 -0.000000 -0.000000 0.000000 0.000000 0.000000 -25.153044 -31.818716 -7.425680 105.693461 2.944187 0.086858 8.202471 1.906442 18.341914 7.321926 7.978037 1.659032 0.388195 2.494100 -0.000004 -0.000004 0.000003 0.000003 -0.000000 -0.000000 -0.000000 
0.150269 16.663000 -0.138509 -0.747475 -2.129187 6.530638 1.441937 17.955302 5.633079 -21.723844 3.357087 -46.038157 16.300069 5.171236 41.030732 1.687015 -5.432504 -4.308940 -0.000000 -0.000000 -0.000000 -9.015977 -20.623605 0.454688 39.779965 19.864801 -27.005667 -18.841857 -7.413242 55.511063 1.457730 6.470740 -1.797978 0.006063 -0.002316 0.007191 -1.937297 0.120997 -2.123545 10.817690 0.705657 19.320223 -3.326736 0.848037 -5.292551 -1.246188 0.052809 -10.751605 1.649430 -0.992094 26.079704 0.631947 0.090288 0.088739 17.147900 26.147455 -5.476642 -90.438950 3.055369 8.464180 -28.510572 -34.000778 22.380829 -2.753214 2.487916 -1.033174 -0.121028 -1.148140 -0.000001 -0.000000 0.000000 0.000000 -0.000000 -0.000000 -0.000000 -25.147374 -31.615603 -7.411515 105.335594 2.872893 -0.127819 8.226810 2.043703 17.853038 6.980794 8.201032 1.734351 0.388195 2.494100 -0.000004 -0.000004 0.000003 0.000003 0.000000 0.000000 -0.000000 
